<mxfile host="app.diagrams.net" modified="2022-06-21T13:21:24.148Z" agent="5.0 (X11; Linux x86_64) AppleWebKit/537.36 (KHTML, like Gecko) Chrome/101.0.0.0 Safari/537.36" etag="10Czcfxay4yBVYP179LD" version="18.1.3" type="github">
  <diagram id="CW5a-jpiLjpU970YetBy" name="Page-1">
    <mxGraphModel dx="1422" dy="773" grid="1" gridSize="10" guides="1" tooltips="1" connect="1" arrows="1" fold="1" page="1" pageScale="1" pageWidth="1000" pageHeight="700" math="0" shadow="0">
      <root>
        <mxCell id="0" />
        <mxCell id="1" parent="0" />
        <mxCell id="zJUUyPgEPxu4SLfRpLYF-1" value="Client" style="rounded=0;whiteSpace=wrap;html=1;fillColor=#d5e8d4;strokeColor=#82b366;" vertex="1" parent="1">
          <mxGeometry x="80" y="200" width="120" height="60" as="geometry" />
        </mxCell>
        <mxCell id="zJUUyPgEPxu4SLfRpLYF-6" style="edgeStyle=orthogonalEdgeStyle;rounded=0;orthogonalLoop=1;jettySize=auto;html=1;" edge="1" parent="1" source="zJUUyPgEPxu4SLfRpLYF-2">
          <mxGeometry relative="1" as="geometry">
            <mxPoint x="350" y="330" as="targetPoint" />
          </mxGeometry>
        </mxCell>
        <mxCell id="zJUUyPgEPxu4SLfRpLYF-2" value="Client" style="rounded=0;whiteSpace=wrap;html=1;fillColor=#d5e8d4;strokeColor=#82b366;" vertex="1" parent="1">
          <mxGeometry x="80" y="300" width="120" height="60" as="geometry" />
        </mxCell>
        <mxCell id="zJUUyPgEPxu4SLfRpLYF-3" value="Client" style="rounded=0;whiteSpace=wrap;html=1;fillColor=#d5e8d4;strokeColor=#82b366;" vertex="1" parent="1">
          <mxGeometry x="80" y="410" width="120" height="60" as="geometry" />
        </mxCell>
        <mxCell id="zJUUyPgEPxu4SLfRpLYF-4" value="" style="rounded=0;whiteSpace=wrap;html=1;fillColor=#f8cecc;strokeColor=#b85450;" vertex="1" parent="1">
          <mxGeometry x="360" y="130" width="20" height="380" as="geometry" />
        </mxCell>
        <mxCell id="zJUUyPgEPxu4SLfRpLYF-5" value="Authentication" style="text;html=1;align=center;verticalAlign=middle;resizable=0;points=[];autosize=1;strokeColor=none;fillColor=none;rotation=-90;" vertex="1" parent="1">
          <mxGeometry x="325" y="320" width="90" height="20" as="geometry" />
        </mxCell>
        <mxCell id="zJUUyPgEPxu4SLfRpLYF-7" value="Connection" style="rounded=0;whiteSpace=wrap;html=1;" vertex="1" parent="1">
          <mxGeometry x="560" y="280" width="120" height="60" as="geometry" />
        </mxCell>
      </root>
    </mxGraphModel>
  </diagram>
</mxfile>
